<svg width="144" height="34" viewBox="0 0 144 34" fill="none" xmlns="http://www.w3.org/2000/svg">
<circle cx="15" cy="17" r="13.5" fill="#FFCB46" stroke="black" stroke-width="3"/>
<path d="M42.7699 27V6.63636H50.804C52.3419 6.63636 53.6544 6.91146 54.7415 7.46165C55.8352 8.00521 56.6671 8.77746 57.2372 9.77841C57.8139 10.7727 58.1023 11.9427 58.1023 13.2884C58.1023 14.6406 57.8106 15.804 57.2273 16.7784C56.6439 17.7462 55.7988 18.4886 54.6918 19.0057C53.5914 19.5227 52.259 19.7812 50.6946 19.7812H45.3153V16.321H49.9986C50.8205 16.321 51.5033 16.2083 52.0469 15.983C52.5904 15.7576 52.9948 15.4195 53.2599 14.9688C53.5317 14.518 53.6676 13.9579 53.6676 13.2884C53.6676 12.6122 53.5317 12.0421 53.2599 11.5781C52.9948 11.1141 52.5871 10.7628 52.0369 10.5241C51.4934 10.2789 50.8073 10.1562 49.9787 10.1562H47.0753V27H42.7699ZM53.767 17.733L58.8281 27H54.0753L49.1236 17.733H53.767ZM67.7198 27.2983C66.1753 27.2983 64.8396 26.9702 63.7127 26.3139C62.5924 25.651 61.7274 24.7296 61.1175 23.5497C60.5077 22.3632 60.2028 20.9877 60.2028 19.4233C60.2028 17.8456 60.5077 16.4669 61.1175 15.2869C61.7274 14.1004 62.5924 13.179 63.7127 12.5227C64.8396 11.8598 66.1753 11.5284 67.7198 11.5284C69.2643 11.5284 70.5967 11.8598 71.717 12.5227C72.8439 13.179 73.7122 14.1004 74.3221 15.2869C74.9319 16.4669 75.2369 17.8456 75.2369 19.4233C75.2369 20.9877 74.9319 22.3632 74.3221 23.5497C73.7122 24.7296 72.8439 25.651 71.717 26.3139C70.5967 26.9702 69.2643 27.2983 67.7198 27.2983ZM67.7397 24.017C68.4424 24.017 69.029 23.8182 69.4996 23.4205C69.9703 23.0161 70.3249 22.4659 70.5636 21.7699C70.8088 21.0739 70.9315 20.2817 70.9315 19.3935C70.9315 18.5052 70.8088 17.7131 70.5636 17.017C70.3249 16.321 69.9703 15.7708 69.4996 15.3665C69.029 14.9621 68.4424 14.7599 67.7397 14.7599C67.0304 14.7599 66.4338 14.9621 65.9499 15.3665C65.4727 15.7708 65.1114 16.321 64.8661 17.017C64.6275 17.7131 64.5082 18.5052 64.5082 19.3935C64.5082 20.2817 64.6275 21.0739 64.8661 21.7699C65.1114 22.4659 65.4727 23.0161 65.9499 23.4205C66.4338 23.8182 67.0304 24.017 67.7397 24.017ZM82.2269 18.1705V27H77.9911V11.7273H82.0281V14.4219H82.207C82.5451 13.5336 83.1119 12.831 83.9073 12.3139C84.7028 11.7902 85.6673 11.5284 86.8008 11.5284C87.8614 11.5284 88.7861 11.7604 89.5749 12.2244C90.3638 12.6884 90.9769 13.3513 91.4144 14.2131C91.8519 15.0682 92.0707 16.089 92.0707 17.2756V27H87.8349V18.0312C87.8415 17.0966 87.6029 16.3674 87.119 15.8438C86.6351 15.3134 85.9689 15.0483 85.1204 15.0483C84.5503 15.0483 84.0465 15.1709 83.609 15.4162C83.1781 15.6615 82.8401 16.0194 82.5948 16.4901C82.3562 16.9541 82.2335 17.5142 82.2269 18.1705ZM99.7642 27.2884C98.7898 27.2884 97.9214 27.1193 97.1591 26.7812C96.3968 26.4366 95.7936 25.9295 95.3494 25.2599C94.9119 24.5838 94.6932 23.742 94.6932 22.7344C94.6932 21.8859 94.849 21.1733 95.1605 20.5966C95.4721 20.0199 95.8963 19.5559 96.4332 19.2045C96.9702 18.8532 97.58 18.5881 98.2628 18.4091C98.9522 18.2301 99.6747 18.1042 100.43 18.0312C101.319 17.9384 102.035 17.8523 102.578 17.7727C103.122 17.6866 103.516 17.5606 103.761 17.3949C104.007 17.2292 104.129 16.9839 104.129 16.6591V16.5994C104.129 15.9697 103.93 15.4825 103.533 15.1378C103.142 14.7931 102.585 14.6207 101.862 14.6207C101.1 14.6207 100.493 14.7898 100.043 15.1278C99.5919 15.4593 99.2936 15.8769 99.1477 16.3807L95.2301 16.0625C95.429 15.1345 95.8201 14.3324 96.4034 13.6562C96.9867 12.9735 97.7391 12.4498 98.6605 12.0852C99.5885 11.714 100.662 11.5284 101.882 11.5284C102.731 11.5284 103.543 11.6278 104.318 11.8267C105.1 12.0256 105.793 12.3338 106.396 12.7514C107.006 13.169 107.487 13.706 107.838 14.3622C108.189 15.0118 108.365 15.7907 108.365 16.6989V27H104.348V24.8821H104.229C103.983 25.3594 103.655 25.7803 103.244 26.1449C102.833 26.5028 102.339 26.7846 101.763 26.9901C101.186 27.1889 100.52 27.2884 99.7642 27.2884ZM100.977 24.3651C101.6 24.3651 102.151 24.2424 102.628 23.9972C103.105 23.7453 103.48 23.4072 103.751 22.983C104.023 22.5587 104.159 22.0781 104.159 21.5412V19.9205C104.027 20.0066 103.844 20.0862 103.612 20.1591C103.387 20.2254 103.132 20.2884 102.847 20.348C102.562 20.401 102.277 20.4508 101.991 20.4972C101.706 20.5369 101.448 20.5734 101.216 20.6065C100.719 20.6795 100.285 20.7955 99.9134 20.9545C99.5421 21.1136 99.2538 21.3291 99.0483 21.6009C98.8428 21.866 98.7401 22.1974 98.7401 22.5952C98.7401 23.1719 98.9489 23.6127 99.3665 23.9176C99.7907 24.2159 100.328 24.3651 100.977 24.3651ZM115.887 6.63636V27H111.651V6.63636H115.887ZM124.908 27.2486C123.748 27.2486 122.697 26.9503 121.756 26.3537C120.821 25.7505 120.079 24.8655 119.529 23.6989C118.985 22.5256 118.713 21.0871 118.713 19.3835C118.713 17.6335 118.995 16.1785 119.559 15.0185C120.122 13.8518 120.871 12.9801 121.806 12.4034C122.747 11.8201 123.778 11.5284 124.898 11.5284C125.753 11.5284 126.466 11.6742 127.036 11.9659C127.613 12.2509 128.077 12.6089 128.428 13.0398C128.786 13.464 129.058 13.8816 129.243 14.2926H129.373V6.63636H133.598V27H129.422V24.554H129.243C129.044 24.9782 128.763 25.3991 128.398 25.8168C128.04 26.2277 127.573 26.5691 126.996 26.8409C126.426 27.1127 125.73 27.2486 124.908 27.2486ZM126.25 23.8778C126.933 23.8778 127.51 23.6922 127.98 23.321C128.458 22.9432 128.822 22.4162 129.074 21.7401C129.333 21.0639 129.462 20.2718 129.462 19.3636C129.462 18.4555 129.336 17.6667 129.084 16.9972C128.832 16.3277 128.468 15.8106 127.99 15.446C127.513 15.0814 126.933 14.8991 126.25 14.8991C125.554 14.8991 124.968 15.0881 124.49 15.4659C124.013 15.8437 123.652 16.3674 123.407 17.0369C123.161 17.7064 123.039 18.482 123.039 19.3636C123.039 20.2519 123.161 21.0374 123.407 21.7202C123.658 22.3963 124.02 22.9266 124.49 23.3111C124.968 23.6889 125.554 23.8778 126.25 23.8778ZM139.557 27.2585C138.901 27.2585 138.337 27.0265 137.866 26.5625C137.402 26.0919 137.17 25.5284 137.17 24.8722C137.17 24.2225 137.402 23.6657 137.866 23.2017C138.337 22.7377 138.901 22.5057 139.557 22.5057C140.193 22.5057 140.75 22.7377 141.227 23.2017C141.705 23.6657 141.943 24.2225 141.943 24.8722C141.943 25.3097 141.83 25.7107 141.605 26.0753C141.386 26.4332 141.098 26.7216 140.74 26.9403C140.382 27.1525 139.988 27.2585 139.557 27.2585Z" fill="black"/>
</svg>
