<?xml version="1.0" encoding="utf-8"?>
<!-- Generator: Adobe Illustrator 23.0.0, SVG Export Plug-In . SVG Version: 6.00 Build 0)  -->
<svg version="1.1" id="OBJECTS" xmlns="http://www.w3.org/2000/svg" xmlns:xlink="http://www.w3.org/1999/xlink" x="0px" y="0px"
	 viewBox="0 0 118.9 135.6" style="enable-background:new 0 0 118.9 135.6;" xml:space="preserve">
<style type="text/css">
	.st0{fill:none;stroke:#1A1A1A;stroke-width:1.1491;stroke-miterlimit:10;}
	.st1{fill:none;stroke:#1A1A1A;stroke-width:0.5745;stroke-linecap:round;stroke-linejoin:round;stroke-miterlimit:10;}
	.st2{fill:none;stroke:#1A1A1A;stroke-width:1.0878;stroke-linecap:round;stroke-linejoin:round;stroke-miterlimit:10;}
	.st3{fill:#1A1A1A;}
	.st4{fill:none;stroke:#1A1A1A;stroke-width:1.1491;stroke-linecap:round;stroke-linejoin:round;stroke-miterlimit:10;}
</style>
<g>
	<g>
		<g>
			<path class="st0" d="M35.6,44.6c0,0-2.4-3.5-5.3-1.8c-2.9,1.7-2,8,0,11.1c2,3.1,5.1,4.7,6.9,2.3"/>
			<g>
				<g>
					<path class="st1" d="M30.6,46.8c0,0,3.2-1.1,5.6,3.7"/>
				</g>
				<path class="st1" d="M34.6,48.1c0,0-3.5,1.9-1.2,4.7"/>
			</g>
		</g>
		<path class="st0" d="M82.3,36.7c0,0,2.9,42.9-23.1,42.9c-25.9,0-23.9-42.9-23.9-42.9s-1.3-25.5,24.7-25.5
			C84.3,11.2,82.3,36.7,82.3,36.7z"/>
		<g>
			<path class="st2" d="M57.7,42.4v11c0,0.3,0.1,0.5,0.2,0.8c0.4,1,1.5,1.4,2.5,1.2l2.2-0.6"/>
			<path class="st3" d="M54.4,31.9c-0.2,0.3-0.9,4-0.9,4l-12.3,1.4l3.9-2.8c1-0.6,2.1-1.1,3.3-1.3L54.4,31.9z"/>
			<path class="st3" d="M62.9,31.9c0.2,0.3,0.9,4,0.9,4l12.3,1.4l-3.9-2.8c-1-0.7-2.1-1.1-3.3-1.3L62.9,31.9z"/>
			<path class="st3" d="M51.6,42.5c0,1.2-1,2.2-2.2,2.2c-1.2,0-2.2-1-2.2-2.2c0-1.2,1-2.2,2.2-2.2C50.6,40.3,51.6,41.3,51.6,42.5z"
				/>
			<path class="st3" d="M71.6,42.5c0,1.2-1,2.2-2.2,2.2c-1.2,0-2.2-1-2.2-2.2c0-1.2,1-2.2,2.2-2.2C70.7,40.3,71.6,41.3,71.6,42.5z"
				/>
			<line class="st1" x1="53.3" y1="44.6" x2="48" y2="48.1"/>
			<line class="st1" x1="66.1" y1="45" x2="70.8" y2="48.6"/>
			<line class="st2" x1="54.5" y1="60.8" x2="64.9" y2="60.8"/>
		</g>
		<g>
			<path class="st0" d="M82.3,45.2c0,0,2.4-3.5,5.3-1.8c2.9,1.7,2,8,0,11.1c-2,3.1-5.1,4.7-6.9,2.3"/>
			<g>
				<g>
					<path class="st1" d="M87.3,47.3c0,0-3.2-1.1-5.6,3.7"/>
				</g>
				<path class="st1" d="M83.3,48.7c0,0,3.5,1.9,1.2,4.7"/>
			</g>
		</g>
		<path class="st3" d="M64.1,0c-14.6,0.2-19.8,9.6-20,9.9c0,0,0,0,0,0c-0.6-0.2-8.6-3-12.5,5.3c-3.4,7,0.6,20,2,24.3
			c0.5,1.9,1,3.9,1.4,5.7l2.2-15.5c0.3-1.8,0.9-3.5,1.8-5.1c1.2-1.9,5.8-8.4,12.6-3.9c7.4,4.9,16,12.5,28.4,5.8l2.1,19.8
			c1.2-3.6,2.2-7.2,2.8-10.7l0,0C94.1,8,76.3-0.2,64.1,0z"/>
	</g>
	<g>
		<g>
			<line class="st4" x1="43.4" y1="72.2" x2="43.4" y2="90.3"/>
			<line class="st4" x1="75.5" y1="71.3" x2="75.5" y2="90.3"/>
			<path class="st3" d="M43.9,72.7c0,0,4.6,9.2,12.1,13.5c5.5,3.1,12.5,1.9,16.2-3.2c1.8-2.5,3.3-6.2,3.3-11.7c0,0-6,7.9-15,8.3
				C51.5,80,43.9,72.7,43.9,72.7z"/>
		</g>
		<g>
			<path class="st4" d="M0.6,135c0-13.7,9.7-23.9,17.2-29.8c3.9-3.1,8.4-5.4,13.2-7c4.1-1.3,9.9-3.8,12.5-7.9c0,0,13.9,14,32.1,0
				c0,0,8.4,6.6,12.5,7.9c4.8,1.6,9.2,3.9,13.2,7c7.5,5.9,17.2,16.1,17.2,29.8"/>
			<path class="st4" d="M37.2,95.6c0,0,17.8,22.6,46.1,0.3"/>
			<line class="st4" x1="10.9" y1="111.9" x2="108.1" y2="111.9"/>
			<line class="st4" x1="1.3" y1="131.3" x2="117.7" y2="131.3"/>
			<line class="st4" x1="4.2" y1="121.6" x2="115.1" y2="121.6"/>
		</g>
	</g>
</g>
</svg>
